<?xml version="1.0" standalone="no"?>
<!DOCTYPE svg PUBLIC "-//W3C//DTD SVG 20010904//EN"
 "http://www.w3.org/TR/2001/REC-SVG-20010904/DTD/svg10.dtd">
<svg version="1.0" xmlns="http://www.w3.org/2000/svg"
 width="700.000000pt" height="700.000000pt" viewBox="0 0 700.000000 700.000000"
 preserveAspectRatio="xMidYMid meet">
<metadata>
Created by potrace 1.14, written by Peter Selinger 2001-2017
</metadata>
<g transform="translate(0.000000,700.000000) scale(0.100000,-0.100000)"
fill="#000000" stroke="none">
<path d="M3915 6343 c-87 -10 -259 -36 -320 -49 -38 -8 -79 -17 -91 -19 -60
-13 -243 -72 -344 -112 -115 -45 -352 -161 -358 -175 -2 -5 -9 -8 -15 -8 -10
0 -224 -139 -261 -171 -12 -9 -57 -46 -101 -81 -108 -85 -292 -271 -391 -393
-177 -219 -357 -530 -449 -775 -42 -110 -95 -278 -95 -300 0 -13 93 -15 774
-15 426 0 776 3 778 5 2 3 27 37 55 75 48 65 146 169 218 230 154 131 416 247
620 273 120 16 352 6 448 -18 20 -6 52 -14 71 -19 251 -64 531 -267 694 -504
95 -138 173 -317 205 -475 9 -41 18 -76 21 -79 4 -4 1128 -7 1454 -4 l73 1 -6
68 c-3 37 -8 78 -10 92 -53 331 -102 509 -213 775 -35 85 -141 285 -203 383
-299 480 -748 868 -1259 1087 -158 68 -423 149 -560 170 -25 4 -54 9 -65 12
-96 20 -259 31 -435 30 -113 0 -218 -2 -235 -4z"/>
<path d="M108 3939 c-7 -5 2 -55 25 -145 33 -127 118 -456 170 -661 l21 -81
63 0 63 1 11 41 c6 22 49 183 95 356 47 173 87 319 88 324 2 9 47 -142 97
-324 10 -36 27 -99 39 -140 12 -41 23 -82 25 -90 3 -8 11 -40 20 -70 9 -30 19
-65 22 -76 4 -19 12 -22 69 -23 35 0 64 2 64 5 0 3 41 166 91 362 50 196 92
364 94 372 2 8 11 44 20 79 11 42 13 66 6 70 -10 7 -110 6 -115 -1 -3 -4 -140
-611 -152 -677 -9 -45 -14 -34 -64 144 -117 420 -143 511 -150 525 -9 17 -105
20 -119 4 -5 -5 -20 -52 -34 -104 -15 -52 -56 -202 -92 -333 -36 -130 -65
-244 -65 -253 0 -28 -18 -5 -25 33 -3 21 -19 92 -35 158 -37 156 -88 373 -94
405 -14 72 -19 91 -28 96 -13 8 -98 10 -110 3z"/>
<path d="M1510 3942 c-27 -3 -22 8 -212 -527 -27 -77 -63 -178 -80 -225 -17
-47 -34 -97 -38 -112 l-9 -28 58 0 58 0 16 43 c9 23 30 83 47 134 l32 92 173
0 173 0 41 -122 c23 -67 43 -127 46 -133 5 -15 125 -18 125 -3 0 5 -43 132
-96 282 -53 150 -121 344 -152 432 -30 88 -56 161 -56 162 -2 3 -103 8 -126 5z
m119 -327 c33 -99 61 -185 61 -190 0 -7 -47 -10 -132 -9 -73 1 -136 2 -139 3
-3 0 26 89 65 196 39 107 73 191 77 187 3 -4 34 -88 68 -187z"/>
<path d="M2095 3930 c-2 -8 -4 -210 -3 -447 l1 -433 53 0 54 0 0 373 1 372 53
-155 c29 -85 86 -253 126 -373 l74 -218 60 3 60 3 122 363 c67 200 124 365
125 367 2 2 4 -162 4 -363 l0 -367 53 -3 52 -3 0 445 c0 418 -1 446 -17 447
-20 1 -99 1 -126 0 -10 -1 -19 -7 -21 -13 -14 -45 -249 -754 -251 -756 -2 -2
-10 18 -18 45 -34 111 -240 709 -247 716 -4 5 -40 10 -79 10 -56 2 -72 -1 -76
-13z"/>
<path d="M3174 3941 c-2 -2 -4 -204 -4 -448 l0 -443 55 0 c45 0 55 3 56 18 0
9 1 95 1 190 l1 172 161 0 c190 0 234 11 296 72 69 69 89 187 49 292 -29 78
-95 130 -182 143 -48 7 -427 10 -433 4z m434 -118 c52 -26 82 -75 82 -135 0
-59 -19 -99 -62 -130 -31 -21 -45 -23 -190 -26 l-157 -4 1 154 c0 84 2 155 3
158 2 3 67 4 144 3 114 -1 149 -5 179 -20z"/>
<path d="M5365 3290 c-2 -4 -7 -22 -10 -41 -11 -66 -57 -203 -96 -287 -74
-161 -209 -338 -349 -457 -152 -129 -357 -226 -574 -270 -92 -19 -273 -24
-386 -11 -129 15 -331 80 -440 143 -158 91 -314 227 -410 356 l-43 57 -784 0
-785 -1 7 -37 c20 -110 146 -430 228 -582 82 -151 235 -390 277 -430 3 -3 25
-30 50 -60 67 -84 204 -225 306 -315 383 -342 908 -588 1399 -654 195 -27 477
-35 650 -18 392 37 790 169 1134 376 207 124 346 234 536 425 378 378 630 833
754 1356 31 129 38 170 57 310 4 30 8 75 8 100 l1 45 -763 1 c-420 0 -765 -3
-767 -6z"/>
</g>
</svg>
